<svg xmlns="http://www.w3.org/2000/svg" version="1.1" xmlns:xlink="http://www.w3.org/1999/xlink" xmlns:svgjs="http://svgjs.dev/svgjs" width="1440" height="560" preserveAspectRatio="none" viewBox="0 0 1440 560"><g mask="url(&quot;#SvgjsMask1418&quot;)" fill="none"><rect width="1440" height="560" x="0" y="0" fill="#0e2a47"></rect><g mask="url(&quot;#SvgjsMask1420&quot;)"><path d="M640.5 241.5L661.5 262.5L682.5 283.5L703.5 283.5L724.5 283.5L745.5 283.5L766.5 262.5L787.5 262.5L808.5 262.5L829.5 262.5M556.5 241.5L577.5 262.5L598.5 262.5L619.5 262.5L640.5 262.5M325.5 241.5L346.5 262.5L367.5 262.5L388.5 262.5L409.5 262.5L430.5 262.5L451.5 262.5L472.5 262.5L493.5 262.5M136.5 262.5L157.5 283.5L178.5 283.5L199.5 283.5L220.5 283.5L241.5 283.5L262.5 283.5L283.5 283.5L304.5 283.5L325.5 283.5L346.5 283.5L367.5 283.5L388.5 304.5M703.5 241.5L724.5 262.5M682.5 241.5L703.5 262.5M724.5 241.5L745.5 241.5L766.5 241.5L787.5 241.5L808.5 220.5M94.5 262.5L115.5 283.5M73.5 262.5L94.5 283.5M-10.5 283.5L10.5 262.5L31.5 262.5L52.5 262.5L73.5 262.5L94.5 262.5L115.5 262.5L136.5 262.5L157.5 262.5L178.5 262.5L199.5 262.5L220.5 262.5L241.5 262.5L262.5 262.5L283.5 262.5L304.5 262.5L325.5 241.5L346.5 241.5L367.5 241.5L388.5 241.5L409.5 241.5L430.5 241.5L451.5 241.5L472.5 241.5L493.5 241.5L514.5 241.5L535.5 241.5L556.5 241.5L577.5 241.5L598.5 241.5L619.5 241.5L640.5 241.5L661.5 241.5L682.5 241.5L703.5 241.5L724.5 241.5L745.5 220.5L766.5 220.5L787.5 220.5" stroke="url(&quot;#SvgjsLinearGradient1419&quot;)" stroke-width="3.5"></path><path d="M782.25 220.5 a5.25 5.25 0 1 0 10.5 0 a5.25 5.25 0 1 0 -10.5 0zM824.25 262.5 a5.25 5.25 0 1 0 10.5 0 a5.25 5.25 0 1 0 -10.5 0zM635.25 262.5 a5.25 5.25 0 1 0 10.5 0 a5.25 5.25 0 1 0 -10.5 0zM488.25 262.5 a5.25 5.25 0 1 0 10.5 0 a5.25 5.25 0 1 0 -10.5 0zM383.25 304.5 a5.25 5.25 0 1 0 10.5 0 a5.25 5.25 0 1 0 -10.5 0zM719.25 262.5 a5.25 5.25 0 1 0 10.5 0 a5.25 5.25 0 1 0 -10.5 0zM698.25 262.5 a5.25 5.25 0 1 0 10.5 0 a5.25 5.25 0 1 0 -10.5 0zM803.25 220.5 a5.25 5.25 0 1 0 10.5 0 a5.25 5.25 0 1 0 -10.5 0zM110.25 283.5 a5.25 5.25 0 1 0 10.5 0 a5.25 5.25 0 1 0 -10.5 0zM89.25 283.5 a5.25 5.25 0 1 0 10.5 0 a5.25 5.25 0 1 0 -10.5 0z" fill="url(&quot;#SvgjsLinearGradient1419&quot;)"></path><path d="M892.5 199.5L913.5 220.5L934.5 220.5L955.5 241.5L976.5 241.5L997.5 241.5L1018.5 241.5L1039.5 241.5L1060.5 241.5L1081.5 241.5L1102.5 241.5L1123.5 241.5L1144.5 241.5L1165.5 241.5L1186.5 241.5L1207.5 241.5L1228.5 241.5L1249.5 241.5L1270.5 241.5M1081.5 199.5L1102.5 178.5L1123.5 178.5L1144.5 178.5L1165.5 178.5L1186.5 178.5L1207.5 178.5L1228.5 178.5L1249.5 178.5L1270.5 178.5L1291.5 178.5M850.5 199.5L871.5 220.5L892.5 220.5M955.5 199.5L976.5 220.5L997.5 220.5L1018.5 220.5L1039.5 220.5L1060.5 220.5L1081.5 220.5L1102.5 220.5L1123.5 220.5L1144.5 220.5L1165.5 220.5L1186.5 220.5L1207.5 220.5L1228.5 220.5L1249.5 220.5L1270.5 220.5L1291.5 220.5M430.5 220.5L451.5 199.5L472.5 199.5L493.5 199.5L514.5 199.5L535.5 199.5L556.5 199.5M388.5 220.5L409.5 199.5L430.5 199.5M829.5 199.5L850.5 220.5L871.5 241.5L892.5 241.5L913.5 241.5L934.5 241.5L955.5 262.5L976.5 262.5L997.5 262.5L1018.5 262.5L1039.5 262.5L1060.5 262.5L1081.5 262.5M-10.5 262.5L10.5 241.5L31.5 241.5L52.5 241.5L73.5 241.5L94.5 241.5L115.5 241.5L136.5 241.5L157.5 241.5L178.5 241.5L199.5 241.5L220.5 241.5L241.5 241.5L262.5 241.5L283.5 241.5L304.5 241.5L325.5 220.5L346.5 220.5L367.5 220.5L388.5 220.5L409.5 220.5L430.5 220.5L451.5 220.5L472.5 220.5L493.5 220.5L514.5 220.5L535.5 220.5L556.5 220.5L577.5 220.5L598.5 220.5L619.5 220.5L640.5 220.5L661.5 220.5L682.5 220.5L703.5 220.5L724.5 220.5L745.5 199.5L766.5 199.5L787.5 199.5L808.5 199.5L829.5 199.5L850.5 199.5L871.5 199.5L892.5 199.5L913.5 199.5L934.5 199.5L955.5 199.5L976.5 199.5L997.5 199.5L1018.5 199.5L1039.5 199.5L1060.5 199.5L1081.5 199.5L1102.5 199.5L1123.5 199.5L1144.5 199.5" stroke="url(&quot;#SvgjsLinearGradient1419&quot;)" stroke-width="3.5"></path><path d="M1139.25 199.5 a5.25 5.25 0 1 0 10.5 0 a5.25 5.25 0 1 0 -10.5 0zM1265.25 241.5 a5.25 5.25 0 1 0 10.5 0 a5.25 5.25 0 1 0 -10.5 0zM1286.25 178.5 a5.25 5.25 0 1 0 10.5 0 a5.25 5.25 0 1 0 -10.5 0zM887.25 220.5 a5.25 5.25 0 1 0 10.5 0 a5.25 5.25 0 1 0 -10.5 0zM1286.25 220.5 a5.25 5.25 0 1 0 10.5 0 a5.25 5.25 0 1 0 -10.5 0zM551.25 199.5 a5.25 5.25 0 1 0 10.5 0 a5.25 5.25 0 1 0 -10.5 0zM425.25 199.5 a5.25 5.25 0 1 0 10.5 0 a5.25 5.25 0 1 0 -10.5 0zM1076.25 262.5 a5.25 5.25 0 1 0 10.5 0 a5.25 5.25 0 1 0 -10.5 0z" fill="url(&quot;#SvgjsLinearGradient1419&quot;)"></path><path d="M493.5 304.5L514.5 283.5L535.5 283.5L556.5 283.5L577.5 283.5M262.5 304.5L283.5 325.5L304.5 346.5L325.5 346.5M535.5 304.5L556.5 325.5L577.5 325.5M514.5 304.5L535.5 325.5L556.5 346.5M283.5 304.5L304.5 304.5M115.5 304.5L136.5 325.5L157.5 325.5L178.5 325.5M241.5 304.5L262.5 325.5L283.5 346.5M-10.5 304.5L10.5 304.5L31.5 304.5L52.5 304.5L73.5 304.5L94.5 304.5L115.5 304.5L136.5 304.5L157.5 304.5L178.5 304.5L199.5 304.5L220.5 304.5L241.5 304.5L262.5 304.5L283.5 304.5L304.5 325.5L325.5 325.5L346.5 325.5L367.5 325.5L388.5 325.5L409.5 325.5L430.5 325.5L451.5 325.5L472.5 304.5L493.5 304.5L514.5 304.5L535.5 304.5L556.5 304.5L577.5 304.5" stroke="url(&quot;#SvgjsLinearGradient1419&quot;)" stroke-width="3.5"></path><path d="M572.25 304.5 a5.25 5.25 0 1 0 10.5 0 a5.25 5.25 0 1 0 -10.5 0zM572.25 283.5 a5.25 5.25 0 1 0 10.5 0 a5.25 5.25 0 1 0 -10.5 0zM320.25 346.5 a5.25 5.25 0 1 0 10.5 0 a5.25 5.25 0 1 0 -10.5 0zM572.25 325.5 a5.25 5.25 0 1 0 10.5 0 a5.25 5.25 0 1 0 -10.5 0zM551.25 346.5 a5.25 5.25 0 1 0 10.5 0 a5.25 5.25 0 1 0 -10.5 0zM299.25 304.5 a5.25 5.25 0 1 0 10.5 0 a5.25 5.25 0 1 0 -10.5 0zM173.25 325.5 a5.25 5.25 0 1 0 10.5 0 a5.25 5.25 0 1 0 -10.5 0zM278.25 346.5 a5.25 5.25 0 1 0 10.5 0 a5.25 5.25 0 1 0 -10.5 0z" fill="url(&quot;#SvgjsLinearGradient1419&quot;)"></path><path d="M535.5 178.5L556.5 157.5L577.5 157.5L598.5 157.5L619.5 157.5L640.5 157.5L661.5 157.5L682.5 157.5L703.5 157.5L724.5 157.5L745.5 157.5L766.5 157.5L787.5 157.5L808.5 157.5L829.5 157.5L850.5 157.5L871.5 157.5L892.5 157.5L913.5 157.5M1186.5 157.5L1207.5 136.5L1228.5 136.5L1249.5 136.5M976.5 178.5L997.5 157.5L1018.5 157.5L1039.5 157.5L1060.5 157.5L1081.5 136.5L1102.5 136.5L1123.5 136.5L1144.5 136.5L1165.5 136.5L1186.5 136.5L1207.5 115.5L1228.5 115.5L1249.5 115.5M640.5 199.5L661.5 178.5L682.5 178.5L703.5 178.5L724.5 178.5M430.5 178.5L451.5 157.5M598.5 199.5L619.5 178.5L640.5 178.5M514.5 178.5L535.5 157.5M409.5 178.5L430.5 157.5M367.5 199.5L388.5 199.5M556.5 178.5L577.5 178.5L598.5 178.5M472.5 178.5L493.5 157.5L514.5 157.5M1060.5 178.5L1081.5 178.5M955.5 178.5L976.5 157.5L997.5 136.5L1018.5 136.5L1039.5 136.5L1060.5 136.5L1081.5 115.5L1102.5 115.5M934.5 178.5L955.5 157.5L976.5 136.5L997.5 115.5L1018.5 115.5L1039.5 115.5L1060.5 115.5M-10.5 241.5L10.5 220.5L31.5 220.5L52.5 220.5L73.5 220.5L94.5 220.5L115.5 220.5L136.5 220.5L157.5 220.5L178.5 220.5L199.5 220.5L220.5 220.5L241.5 220.5L262.5 220.5L283.5 220.5L304.5 220.5L325.5 199.5L346.5 199.5L367.5 199.5L388.5 178.5L409.5 178.5L430.5 178.5L451.5 178.5L472.5 178.5L493.5 178.5L514.5 178.5L535.5 178.5L556.5 178.5L577.5 199.5L598.5 199.5L619.5 199.5L640.5 199.5L661.5 199.5L682.5 199.5L703.5 199.5L724.5 199.5L745.5 178.5L766.5 178.5L787.5 178.5L808.5 178.5L829.5 178.5L850.5 178.5L871.5 178.5L892.5 178.5L913.5 178.5L934.5 178.5L955.5 178.5L976.5 178.5L997.5 178.5L1018.5 178.5L1039.5 178.5L1060.5 178.5L1081.5 157.5L1102.5 157.5L1123.5 157.5L1144.5 157.5L1165.5 157.5L1186.5 157.5L1207.5 157.5L1228.5 157.5L1249.5 157.5" stroke="url(&quot;#SvgjsLinearGradient1419&quot;)" stroke-width="3.5"></path><path d="M1244.25 157.5 a5.25 5.25 0 1 0 10.5 0 a5.25 5.25 0 1 0 -10.5 0zM908.25 157.5 a5.25 5.25 0 1 0 10.5 0 a5.25 5.25 0 1 0 -10.5 0zM1244.25 136.5 a5.25 5.25 0 1 0 10.5 0 a5.25 5.25 0 1 0 -10.5 0zM1244.25 115.5 a5.25 5.25 0 1 0 10.5 0 a5.25 5.25 0 1 0 -10.5 0zM719.25 178.5 a5.25 5.25 0 1 0 10.5 0 a5.25 5.25 0 1 0 -10.5 0zM446.25 157.5 a5.25 5.25 0 1 0 10.5 0 a5.25 5.25 0 1 0 -10.5 0zM635.25 178.5 a5.25 5.25 0 1 0 10.5 0 a5.25 5.25 0 1 0 -10.5 0zM530.25 157.5 a5.25 5.25 0 1 0 10.5 0 a5.25 5.25 0 1 0 -10.5 0zM425.25 157.5 a5.25 5.25 0 1 0 10.5 0 a5.25 5.25 0 1 0 -10.5 0zM383.25 199.5 a5.25 5.25 0 1 0 10.5 0 a5.25 5.25 0 1 0 -10.5 0zM593.25 178.5 a5.25 5.25 0 1 0 10.5 0 a5.25 5.25 0 1 0 -10.5 0zM509.25 157.5 a5.25 5.25 0 1 0 10.5 0 a5.25 5.25 0 1 0 -10.5 0zM1076.25 178.5 a5.25 5.25 0 1 0 10.5 0 a5.25 5.25 0 1 0 -10.5 0zM1097.25 115.5 a5.25 5.25 0 1 0 10.5 0 a5.25 5.25 0 1 0 -10.5 0zM1055.25 115.5 a5.25 5.25 0 1 0 10.5 0 a5.25 5.25 0 1 0 -10.5 0z" fill="url(&quot;#SvgjsLinearGradient1419&quot;)"></path><path d="M1081.5 346.5L1102.5 325.5L1123.5 304.5L1144.5 304.5L1165.5 304.5L1186.5 325.5M94.5 325.5L115.5 325.5M724.5 367.5L745.5 388.5L766.5 388.5L787.5 388.5L808.5 388.5L829.5 388.5L850.5 388.5L871.5 388.5L892.5 409.5L913.5 409.5L934.5 409.5L955.5 409.5L976.5 409.5M430.5 367.5L451.5 346.5L472.5 346.5L493.5 346.5L514.5 346.5L535.5 346.5M661.5 367.5L682.5 346.5L703.5 346.5L724.5 346.5L745.5 346.5L766.5 346.5L787.5 346.5L808.5 346.5L829.5 346.5L850.5 346.5M682.5 367.5L703.5 388.5L724.5 388.5L745.5 409.5L766.5 409.5L787.5 409.5L808.5 409.5L829.5 409.5M997.5 367.5L1018.5 346.5L1039.5 325.5L1060.5 325.5L1081.5 325.5L1102.5 304.5L1123.5 283.5L1144.5 283.5L1165.5 283.5L1186.5 283.5L1207.5 283.5L1228.5 283.5L1249.5 283.5L1270.5 283.5M640.5 367.5L661.5 346.5L682.5 325.5L703.5 304.5M619.5 367.5L640.5 346.5L661.5 325.5L682.5 304.5M1060.5 346.5L1081.5 367.5L1102.5 388.5L1123.5 388.5M1144.5 325.5L1165.5 325.5M346.5 367.5L367.5 367.5L388.5 367.5M892.5 367.5L913.5 346.5L934.5 346.5L955.5 346.5L976.5 346.5L997.5 346.5M199.5 346.5L220.5 346.5M-10.5 325.5L10.5 325.5L31.5 325.5L52.5 325.5L73.5 325.5L94.5 325.5L115.5 346.5L136.5 346.5L157.5 346.5L178.5 346.5L199.5 346.5L220.5 367.5L241.5 367.5L262.5 367.5L283.5 367.5L304.5 367.5L325.5 367.5L346.5 367.5L367.5 346.5L388.5 346.5L409.5 367.5L430.5 367.5L451.5 367.5L472.5 367.5L493.5 367.5L514.5 367.5L535.5 367.5L556.5 367.5L577.5 367.5L598.5 367.5L619.5 367.5L640.5 367.5L661.5 367.5L682.5 367.5L703.5 367.5L724.5 367.5L745.5 367.5L766.5 367.5L787.5 367.5L808.5 367.5L829.5 367.5L850.5 367.5L871.5 367.5L892.5 367.5L913.5 367.5L934.5 367.5L955.5 367.5L976.5 367.5L997.5 367.5L1018.5 367.5L1039.5 346.5L1060.5 346.5L1081.5 346.5L1102.5 346.5L1123.5 325.5L1144.5 325.5L1165.5 346.5L1186.5 346.5" stroke="url(&quot;#SvgjsLinearGradient1419&quot;)" stroke-width="3.5"></path><path d="M1181.25 346.5 a5.25 5.25 0 1 0 10.5 0 a5.25 5.25 0 1 0 -10.5 0zM1181.25 325.5 a5.25 5.25 0 1 0 10.5 0 a5.25 5.25 0 1 0 -10.5 0zM110.25 325.5 a5.25 5.25 0 1 0 10.5 0 a5.25 5.25 0 1 0 -10.5 0zM971.25 409.5 a5.25 5.25 0 1 0 10.5 0 a5.25 5.25 0 1 0 -10.5 0zM530.25 346.5 a5.25 5.25 0 1 0 10.5 0 a5.25 5.25 0 1 0 -10.5 0zM845.25 346.5 a5.25 5.25 0 1 0 10.5 0 a5.25 5.25 0 1 0 -10.5 0zM824.25 409.5 a5.25 5.25 0 1 0 10.5 0 a5.25 5.25 0 1 0 -10.5 0zM1265.25 283.5 a5.25 5.25 0 1 0 10.5 0 a5.25 5.25 0 1 0 -10.5 0zM698.25 304.5 a5.25 5.25 0 1 0 10.5 0 a5.25 5.25 0 1 0 -10.5 0zM677.25 304.5 a5.25 5.25 0 1 0 10.5 0 a5.25 5.25 0 1 0 -10.5 0zM1118.25 388.5 a5.25 5.25 0 1 0 10.5 0 a5.25 5.25 0 1 0 -10.5 0zM1160.25 325.5 a5.25 5.25 0 1 0 10.5 0 a5.25 5.25 0 1 0 -10.5 0zM383.25 367.5 a5.25 5.25 0 1 0 10.5 0 a5.25 5.25 0 1 0 -10.5 0zM992.25 346.5 a5.25 5.25 0 1 0 10.5 0 a5.25 5.25 0 1 0 -10.5 0zM215.25 346.5 a5.25 5.25 0 1 0 10.5 0 a5.25 5.25 0 1 0 -10.5 0z" fill="url(&quot;#SvgjsLinearGradient1419&quot;)"></path><path d="M346.5 178.5L367.5 157.5M52.5 199.5L73.5 178.5M31.5 199.5L52.5 178.5M661.5 115.5L682.5 136.5L703.5 136.5L724.5 115.5L745.5 115.5L766.5 115.5L787.5 136.5L808.5 136.5M640.5 115.5L661.5 136.5M-10.5 220.5L10.5 199.5L31.5 199.5L52.5 199.5L73.5 199.5L94.5 199.5L115.5 199.5L136.5 199.5L157.5 199.5L178.5 199.5L199.5 199.5L220.5 199.5L241.5 199.5L262.5 199.5L283.5 199.5L304.5 199.5L325.5 178.5L346.5 178.5L367.5 178.5L388.5 157.5L409.5 136.5L430.5 136.5L451.5 136.5L472.5 136.5L493.5 136.5L514.5 136.5L535.5 136.5L556.5 136.5L577.5 136.5L598.5 136.5L619.5 136.5L640.5 115.5L661.5 115.5L682.5 115.5" stroke="url(&quot;#SvgjsLinearGradient1419&quot;)" stroke-width="3.5"></path><path d="M677.25 115.5 a5.25 5.25 0 1 0 10.5 0 a5.25 5.25 0 1 0 -10.5 0zM362.25 157.5 a5.25 5.25 0 1 0 10.5 0 a5.25 5.25 0 1 0 -10.5 0zM68.25 178.5 a5.25 5.25 0 1 0 10.5 0 a5.25 5.25 0 1 0 -10.5 0zM47.25 178.5 a5.25 5.25 0 1 0 10.5 0 a5.25 5.25 0 1 0 -10.5 0zM803.25 136.5 a5.25 5.25 0 1 0 10.5 0 a5.25 5.25 0 1 0 -10.5 0zM656.25 136.5 a5.25 5.25 0 1 0 10.5 0 a5.25 5.25 0 1 0 -10.5 0z" fill="url(&quot;#SvgjsLinearGradient1419&quot;)"></path><path d="M577.5 388.5L598.5 409.5M451.5 388.5L472.5 409.5L493.5 409.5L514.5 409.5L535.5 409.5L556.5 409.5L577.5 409.5L598.5 430.5M409.5 388.5L430.5 409.5L451.5 409.5L472.5 430.5L493.5 430.5L514.5 430.5L535.5 430.5M262.5 388.5L283.5 409.5L304.5 409.5L325.5 409.5L346.5 409.5L367.5 409.5L388.5 409.5M619.5 388.5L640.5 409.5M241.5 388.5L262.5 409.5M-10.5 346.5L10.5 346.5L31.5 346.5L52.5 346.5L73.5 346.5L94.5 346.5L115.5 367.5L136.5 367.5L157.5 367.5L178.5 367.5L199.5 367.5L220.5 388.5L241.5 388.5L262.5 388.5L283.5 388.5L304.5 388.5L325.5 388.5L346.5 388.5L367.5 388.5L388.5 388.5L409.5 388.5L430.5 388.5L451.5 388.5L472.5 388.5L493.5 388.5L514.5 388.5L535.5 388.5L556.5 388.5L577.5 388.5L598.5 388.5L619.5 388.5L640.5 388.5L661.5 388.5" stroke="url(&quot;#SvgjsLinearGradient1419&quot;)" stroke-width="3.5"></path><path d="M656.25 388.5 a5.25 5.25 0 1 0 10.5 0 a5.25 5.25 0 1 0 -10.5 0zM593.25 409.5 a5.25 5.25 0 1 0 10.5 0 a5.25 5.25 0 1 0 -10.5 0zM593.25 430.5 a5.25 5.25 0 1 0 10.5 0 a5.25 5.25 0 1 0 -10.5 0zM530.25 430.5 a5.25 5.25 0 1 0 10.5 0 a5.25 5.25 0 1 0 -10.5 0zM383.25 409.5 a5.25 5.25 0 1 0 10.5 0 a5.25 5.25 0 1 0 -10.5 0zM635.25 409.5 a5.25 5.25 0 1 0 10.5 0 a5.25 5.25 0 1 0 -10.5 0zM257.25 409.5 a5.25 5.25 0 1 0 10.5 0 a5.25 5.25 0 1 0 -10.5 0z" fill="url(&quot;#SvgjsLinearGradient1419&quot;)"></path><path d="M-10.5 199.5L10.5 178.5" stroke="url(&quot;#SvgjsLinearGradient1419&quot;)" stroke-width="3.5"></path><path d="M5.25 178.5 a5.25 5.25 0 1 0 10.5 0 a5.25 5.25 0 1 0 -10.5 0z" fill="url(&quot;#SvgjsLinearGradient1419&quot;)"></path><path d="M346.5 451.5L367.5 472.5L388.5 472.5L409.5 472.5L430.5 472.5L451.5 472.5M535.5 451.5L556.5 472.5L577.5 472.5L598.5 472.5L619.5 472.5L640.5 472.5L661.5 472.5M178.5 388.5L199.5 409.5L220.5 430.5L241.5 451.5L262.5 451.5M514.5 451.5L535.5 472.5L556.5 493.5M745.5 430.5L766.5 451.5L787.5 451.5M283.5 430.5L304.5 430.5L325.5 430.5L346.5 430.5L367.5 430.5M52.5 367.5L73.5 388.5L94.5 388.5L115.5 409.5L136.5 409.5L157.5 409.5L178.5 409.5L199.5 430.5L220.5 451.5L241.5 472.5L262.5 472.5M682.5 430.5L703.5 409.5L724.5 409.5M997.5 430.5L1018.5 430.5L1039.5 430.5L1060.5 430.5L1081.5 451.5L1102.5 451.5L1123.5 451.5L1144.5 451.5L1165.5 451.5L1186.5 430.5L1207.5 409.5L1228.5 409.5L1249.5 409.5L1270.5 430.5M955.5 430.5L976.5 451.5L997.5 451.5L1018.5 451.5L1039.5 451.5L1060.5 451.5L1081.5 472.5L1102.5 472.5M724.5 430.5L745.5 451.5L766.5 472.5L787.5 472.5L808.5 472.5L829.5 472.5L850.5 472.5L871.5 472.5L892.5 472.5L913.5 472.5L934.5 472.5M892.5 430.5L913.5 451.5L934.5 451.5L955.5 451.5L976.5 472.5L997.5 472.5L1018.5 472.5M-10.5 367.5L10.5 367.5L31.5 367.5L52.5 367.5L73.5 367.5L94.5 367.5L115.5 388.5L136.5 388.5L157.5 388.5L178.5 388.5L199.5 388.5L220.5 409.5L241.5 430.5L262.5 430.5L283.5 430.5L304.5 451.5L325.5 451.5L346.5 451.5L367.5 451.5L388.5 451.5L409.5 451.5L430.5 451.5L451.5 451.5L472.5 451.5L493.5 451.5L514.5 451.5L535.5 451.5L556.5 451.5L577.5 451.5L598.5 451.5L619.5 451.5L640.5 430.5L661.5 430.5L682.5 430.5L703.5 430.5L724.5 430.5L745.5 430.5L766.5 430.5L787.5 430.5L808.5 430.5L829.5 430.5L850.5 430.5L871.5 430.5L892.5 430.5L913.5 430.5L934.5 430.5L955.5 430.5L976.5 430.5L997.5 430.5L1018.5 409.5L1039.5 409.5" stroke="url(&quot;#SvgjsLinearGradient1419&quot;)" stroke-width="3.5"></path><path d="M1034.25 409.5 a5.25 5.25 0 1 0 10.5 0 a5.25 5.25 0 1 0 -10.5 0zM446.25 472.5 a5.25 5.25 0 1 0 10.5 0 a5.25 5.25 0 1 0 -10.5 0zM656.25 472.5 a5.25 5.25 0 1 0 10.5 0 a5.25 5.25 0 1 0 -10.5 0zM257.25 451.5 a5.25 5.25 0 1 0 10.5 0 a5.25 5.25 0 1 0 -10.5 0zM551.25 493.5 a5.25 5.25 0 1 0 10.5 0 a5.25 5.25 0 1 0 -10.5 0zM782.25 451.5 a5.25 5.25 0 1 0 10.5 0 a5.25 5.25 0 1 0 -10.5 0zM362.25 430.5 a5.25 5.25 0 1 0 10.5 0 a5.25 5.25 0 1 0 -10.5 0zM257.25 472.5 a5.25 5.25 0 1 0 10.5 0 a5.25 5.25 0 1 0 -10.5 0zM719.25 409.5 a5.25 5.25 0 1 0 10.5 0 a5.25 5.25 0 1 0 -10.5 0zM1265.25 430.5 a5.25 5.25 0 1 0 10.5 0 a5.25 5.25 0 1 0 -10.5 0zM1097.25 472.5 a5.25 5.25 0 1 0 10.5 0 a5.25 5.25 0 1 0 -10.5 0zM929.25 472.5 a5.25 5.25 0 1 0 10.5 0 a5.25 5.25 0 1 0 -10.5 0zM1013.25 472.5 a5.25 5.25 0 1 0 10.5 0 a5.25 5.25 0 1 0 -10.5 0z" fill="url(&quot;#SvgjsLinearGradient1419&quot;)"></path><path d="M766.5 94.5L787.5 94.5L808.5 94.5L829.5 94.5L850.5 94.5L871.5 94.5L892.5 94.5L913.5 94.5L934.5 73.5L955.5 73.5L976.5 73.5L997.5 73.5L1018.5 73.5L1039.5 73.5L1060.5 73.5L1081.5 52.5L1102.5 52.5L1123.5 52.5L1144.5 73.5L1165.5 73.5L1186.5 73.5L1207.5 52.5L1228.5 52.5M535.5 115.5L556.5 94.5L577.5 94.5L598.5 94.5L619.5 94.5L640.5 73.5L661.5 73.5L682.5 73.5L703.5 73.5L724.5 73.5L745.5 73.5L766.5 73.5L787.5 73.5M430.5 115.5L451.5 94.5M514.5 115.5L535.5 94.5M157.5 178.5L178.5 157.5M892.5 115.5L913.5 136.5L934.5 136.5L955.5 136.5L976.5 115.5M220.5 178.5L241.5 157.5L262.5 157.5M325.5 157.5L346.5 157.5M73.5 157.5L94.5 157.5L115.5 157.5L136.5 157.5L157.5 157.5L178.5 136.5M1081.5 94.5L1102.5 73.5L1123.5 73.5L1144.5 94.5L1165.5 115.5M346.5 136.5L367.5 115.5L388.5 115.5L409.5 94.5L430.5 94.5M934.5 94.5L955.5 115.5M913.5 115.5L934.5 115.5M-10.5 178.5L10.5 157.5L31.5 157.5L52.5 157.5L73.5 157.5L94.5 178.5L115.5 178.5L136.5 178.5L157.5 178.5L178.5 178.5L199.5 178.5L220.5 178.5L241.5 178.5L262.5 178.5L283.5 178.5L304.5 178.5L325.5 157.5L346.5 136.5L367.5 136.5L388.5 136.5L409.5 115.5L430.5 115.5L451.5 115.5L472.5 115.5L493.5 115.5L514.5 115.5L535.5 115.5L556.5 115.5L577.5 115.5L598.5 115.5L619.5 115.5L640.5 94.5L661.5 94.5L682.5 94.5L703.5 94.5L724.5 94.5L745.5 94.5L766.5 94.5L787.5 115.5L808.5 115.5L829.5 115.5L850.5 115.5L871.5 115.5L892.5 115.5L913.5 115.5L934.5 94.5L955.5 94.5L976.5 94.5L997.5 94.5L1018.5 94.5L1039.5 94.5L1060.5 94.5L1081.5 94.5L1102.5 94.5" stroke="url(&quot;#SvgjsLinearGradient1419&quot;)" stroke-width="3.5"></path><path d="M1097.25 94.5 a5.25 5.25 0 1 0 10.5 0 a5.25 5.25 0 1 0 -10.5 0zM1223.25 52.5 a5.25 5.25 0 1 0 10.5 0 a5.25 5.25 0 1 0 -10.5 0zM782.25 73.5 a5.25 5.25 0 1 0 10.5 0 a5.25 5.25 0 1 0 -10.5 0zM446.25 94.5 a5.25 5.25 0 1 0 10.5 0 a5.25 5.25 0 1 0 -10.5 0zM530.25 94.5 a5.25 5.25 0 1 0 10.5 0 a5.25 5.25 0 1 0 -10.5 0zM173.25 157.5 a5.25 5.25 0 1 0 10.5 0 a5.25 5.25 0 1 0 -10.5 0zM971.25 115.5 a5.25 5.25 0 1 0 10.5 0 a5.25 5.25 0 1 0 -10.5 0zM257.25 157.5 a5.25 5.25 0 1 0 10.5 0 a5.25 5.25 0 1 0 -10.5 0zM341.25 157.5 a5.25 5.25 0 1 0 10.5 0 a5.25 5.25 0 1 0 -10.5 0zM173.25 136.5 a5.25 5.25 0 1 0 10.5 0 a5.25 5.25 0 1 0 -10.5 0zM1160.25 115.5 a5.25 5.25 0 1 0 10.5 0 a5.25 5.25 0 1 0 -10.5 0zM425.25 94.5 a5.25 5.25 0 1 0 10.5 0 a5.25 5.25 0 1 0 -10.5 0zM950.25 115.5 a5.25 5.25 0 1 0 10.5 0 a5.25 5.25 0 1 0 -10.5 0zM929.25 115.5 a5.25 5.25 0 1 0 10.5 0 a5.25 5.25 0 1 0 -10.5 0z" fill="url(&quot;#SvgjsLinearGradient1419&quot;)"></path><path d="M10.5 136.5L31.5 115.5L52.5 115.5L73.5 115.5L94.5 115.5L115.5 94.5L136.5 73.5L157.5 73.5L178.5 73.5L199.5 73.5M304.5 94.5L325.5 73.5L346.5 73.5L367.5 52.5L388.5 52.5M514.5 73.5L535.5 52.5L556.5 52.5L577.5 52.5L598.5 52.5M94.5 136.5L115.5 136.5L136.5 136.5L157.5 115.5L178.5 115.5L199.5 115.5L220.5 115.5L241.5 115.5M241.5 94.5L262.5 73.5L283.5 52.5L304.5 52.5L325.5 52.5L346.5 52.5M220.5 94.5L241.5 73.5L262.5 52.5M451.5 73.5L472.5 73.5L493.5 52.5L514.5 52.5M283.5 94.5L304.5 73.5M-10.5 157.5L10.5 136.5L31.5 136.5L52.5 136.5L73.5 136.5L94.5 136.5L115.5 115.5L136.5 94.5L157.5 94.5L178.5 94.5L199.5 94.5L220.5 94.5L241.5 94.5L262.5 94.5L283.5 94.5L304.5 94.5L325.5 94.5L346.5 94.5L367.5 94.5L388.5 73.5L409.5 73.5L430.5 73.5L451.5 73.5L472.5 94.5L493.5 94.5L514.5 73.5L535.5 73.5L556.5 73.5L577.5 73.5L598.5 73.5L619.5 52.5L640.5 52.5L661.5 52.5L682.5 52.5L703.5 52.5" stroke="url(&quot;#SvgjsLinearGradient1419&quot;)" stroke-width="3.5"></path><path d="M698.25 52.5 a5.25 5.25 0 1 0 10.5 0 a5.25 5.25 0 1 0 -10.5 0zM194.25 73.5 a5.25 5.25 0 1 0 10.5 0 a5.25 5.25 0 1 0 -10.5 0zM383.25 52.5 a5.25 5.25 0 1 0 10.5 0 a5.25 5.25 0 1 0 -10.5 0zM593.25 52.5 a5.25 5.25 0 1 0 10.5 0 a5.25 5.25 0 1 0 -10.5 0zM236.25 115.5 a5.25 5.25 0 1 0 10.5 0 a5.25 5.25 0 1 0 -10.5 0zM341.25 52.5 a5.25 5.25 0 1 0 10.5 0 a5.25 5.25 0 1 0 -10.5 0zM257.25 52.5 a5.25 5.25 0 1 0 10.5 0 a5.25 5.25 0 1 0 -10.5 0zM509.25 52.5 a5.25 5.25 0 1 0 10.5 0 a5.25 5.25 0 1 0 -10.5 0zM299.25 73.5 a5.25 5.25 0 1 0 10.5 0 a5.25 5.25 0 1 0 -10.5 0z" fill="url(&quot;#SvgjsLinearGradient1419&quot;)"></path></g></g><defs><mask id="SvgjsMask1418"><rect width="1440" height="560" fill="#ffffff"></rect></mask><linearGradient x1="1324.8" y1="280" x2="0" y2="280" gradientUnits="userSpaceOnUse" id="SvgjsLinearGradient1419"><stop stop-color="#3a7cc3" offset="0"></stop><stop stop-color="#dd1133" offset="1"></stop></linearGradient><mask id="SvgjsMask1420"><rect width="1440" height="560" fill="white"></rect><path d="M784.87 220.5 a2.63 2.63 0 1 0 5.26 0 a2.63 2.63 0 1 0 -5.26 0zM826.87 262.5 a2.63 2.63 0 1 0 5.26 0 a2.63 2.63 0 1 0 -5.26 0zM637.87 262.5 a2.63 2.63 0 1 0 5.26 0 a2.63 2.63 0 1 0 -5.26 0zM490.87 262.5 a2.63 2.63 0 1 0 5.26 0 a2.63 2.63 0 1 0 -5.26 0zM385.87 304.5 a2.63 2.63 0 1 0 5.26 0 a2.63 2.63 0 1 0 -5.26 0zM721.87 262.5 a2.63 2.63 0 1 0 5.26 0 a2.63 2.63 0 1 0 -5.26 0zM700.87 262.5 a2.63 2.63 0 1 0 5.26 0 a2.63 2.63 0 1 0 -5.26 0zM805.87 220.5 a2.63 2.63 0 1 0 5.26 0 a2.63 2.63 0 1 0 -5.26 0zM112.87 283.5 a2.63 2.63 0 1 0 5.26 0 a2.63 2.63 0 1 0 -5.26 0zM91.87 283.5 a2.63 2.63 0 1 0 5.26 0 a2.63 2.63 0 1 0 -5.26 0z" fill="black"></path><path d="M1141.87 199.5 a2.63 2.63 0 1 0 5.26 0 a2.63 2.63 0 1 0 -5.26 0zM1267.87 241.5 a2.63 2.63 0 1 0 5.26 0 a2.63 2.63 0 1 0 -5.26 0zM1288.87 178.5 a2.63 2.63 0 1 0 5.26 0 a2.63 2.63 0 1 0 -5.26 0zM889.87 220.5 a2.63 2.63 0 1 0 5.26 0 a2.63 2.63 0 1 0 -5.26 0zM1288.87 220.5 a2.63 2.63 0 1 0 5.26 0 a2.63 2.63 0 1 0 -5.26 0zM553.87 199.5 a2.63 2.63 0 1 0 5.26 0 a2.63 2.63 0 1 0 -5.26 0zM427.87 199.5 a2.63 2.63 0 1 0 5.26 0 a2.63 2.63 0 1 0 -5.26 0zM1078.87 262.5 a2.63 2.63 0 1 0 5.26 0 a2.63 2.63 0 1 0 -5.26 0z" fill="black"></path><path d="M574.87 304.5 a2.63 2.63 0 1 0 5.26 0 a2.63 2.63 0 1 0 -5.26 0zM574.87 283.5 a2.63 2.63 0 1 0 5.26 0 a2.63 2.63 0 1 0 -5.26 0zM322.87 346.5 a2.63 2.63 0 1 0 5.26 0 a2.63 2.63 0 1 0 -5.26 0zM574.87 325.5 a2.63 2.63 0 1 0 5.26 0 a2.63 2.63 0 1 0 -5.26 0zM553.87 346.5 a2.63 2.63 0 1 0 5.26 0 a2.63 2.63 0 1 0 -5.26 0zM301.87 304.5 a2.63 2.63 0 1 0 5.26 0 a2.63 2.63 0 1 0 -5.26 0zM175.87 325.5 a2.63 2.63 0 1 0 5.26 0 a2.63 2.63 0 1 0 -5.26 0zM280.87 346.5 a2.63 2.63 0 1 0 5.26 0 a2.63 2.63 0 1 0 -5.26 0z" fill="black"></path><path d="M1246.87 157.5 a2.63 2.63 0 1 0 5.26 0 a2.63 2.63 0 1 0 -5.26 0zM910.87 157.5 a2.63 2.63 0 1 0 5.26 0 a2.63 2.63 0 1 0 -5.26 0zM1246.87 136.5 a2.63 2.63 0 1 0 5.26 0 a2.63 2.63 0 1 0 -5.26 0zM1246.87 115.5 a2.63 2.63 0 1 0 5.26 0 a2.63 2.63 0 1 0 -5.26 0zM721.87 178.5 a2.63 2.63 0 1 0 5.26 0 a2.63 2.63 0 1 0 -5.26 0zM448.87 157.5 a2.63 2.63 0 1 0 5.26 0 a2.63 2.63 0 1 0 -5.26 0zM637.87 178.5 a2.63 2.63 0 1 0 5.26 0 a2.63 2.63 0 1 0 -5.26 0zM532.87 157.5 a2.63 2.63 0 1 0 5.26 0 a2.63 2.63 0 1 0 -5.26 0zM427.87 157.5 a2.63 2.63 0 1 0 5.26 0 a2.63 2.63 0 1 0 -5.26 0zM385.87 199.5 a2.63 2.63 0 1 0 5.26 0 a2.63 2.63 0 1 0 -5.26 0zM595.87 178.5 a2.63 2.63 0 1 0 5.26 0 a2.63 2.63 0 1 0 -5.26 0zM511.87 157.5 a2.63 2.63 0 1 0 5.26 0 a2.63 2.63 0 1 0 -5.26 0zM1078.87 178.5 a2.63 2.63 0 1 0 5.26 0 a2.63 2.63 0 1 0 -5.26 0zM1099.87 115.5 a2.63 2.63 0 1 0 5.26 0 a2.63 2.63 0 1 0 -5.26 0zM1057.87 115.5 a2.63 2.63 0 1 0 5.26 0 a2.63 2.63 0 1 0 -5.26 0z" fill="black"></path><path d="M1183.87 346.5 a2.63 2.63 0 1 0 5.26 0 a2.63 2.63 0 1 0 -5.26 0zM1183.87 325.5 a2.63 2.63 0 1 0 5.26 0 a2.63 2.63 0 1 0 -5.26 0zM112.87 325.5 a2.63 2.63 0 1 0 5.26 0 a2.63 2.63 0 1 0 -5.26 0zM973.87 409.5 a2.63 2.63 0 1 0 5.26 0 a2.63 2.63 0 1 0 -5.26 0zM532.87 346.5 a2.63 2.63 0 1 0 5.26 0 a2.63 2.63 0 1 0 -5.26 0zM847.87 346.5 a2.63 2.63 0 1 0 5.26 0 a2.63 2.63 0 1 0 -5.26 0zM826.87 409.5 a2.63 2.63 0 1 0 5.26 0 a2.63 2.63 0 1 0 -5.26 0zM1267.87 283.5 a2.63 2.63 0 1 0 5.26 0 a2.63 2.63 0 1 0 -5.26 0zM700.87 304.5 a2.63 2.63 0 1 0 5.26 0 a2.63 2.63 0 1 0 -5.26 0zM679.87 304.5 a2.63 2.63 0 1 0 5.26 0 a2.63 2.63 0 1 0 -5.26 0zM1120.87 388.5 a2.63 2.63 0 1 0 5.26 0 a2.63 2.63 0 1 0 -5.26 0zM1162.87 325.5 a2.63 2.63 0 1 0 5.26 0 a2.63 2.63 0 1 0 -5.26 0zM385.87 367.5 a2.63 2.63 0 1 0 5.26 0 a2.63 2.63 0 1 0 -5.26 0zM994.87 346.5 a2.63 2.63 0 1 0 5.26 0 a2.63 2.63 0 1 0 -5.26 0zM217.87 346.5 a2.63 2.63 0 1 0 5.26 0 a2.63 2.63 0 1 0 -5.26 0z" fill="black"></path><path d="M679.87 115.5 a2.63 2.63 0 1 0 5.26 0 a2.63 2.63 0 1 0 -5.26 0zM364.87 157.5 a2.63 2.63 0 1 0 5.26 0 a2.63 2.63 0 1 0 -5.26 0zM70.87 178.5 a2.63 2.63 0 1 0 5.26 0 a2.63 2.63 0 1 0 -5.26 0zM49.87 178.5 a2.63 2.63 0 1 0 5.26 0 a2.63 2.63 0 1 0 -5.26 0zM805.87 136.5 a2.63 2.63 0 1 0 5.26 0 a2.63 2.63 0 1 0 -5.26 0zM658.87 136.5 a2.63 2.63 0 1 0 5.26 0 a2.63 2.63 0 1 0 -5.26 0z" fill="black"></path><path d="M658.87 388.5 a2.63 2.63 0 1 0 5.26 0 a2.63 2.63 0 1 0 -5.26 0zM595.87 409.5 a2.63 2.63 0 1 0 5.26 0 a2.63 2.63 0 1 0 -5.26 0zM595.87 430.5 a2.63 2.63 0 1 0 5.26 0 a2.63 2.63 0 1 0 -5.26 0zM532.87 430.5 a2.63 2.63 0 1 0 5.26 0 a2.63 2.63 0 1 0 -5.26 0zM385.87 409.5 a2.63 2.63 0 1 0 5.26 0 a2.63 2.63 0 1 0 -5.26 0zM637.87 409.5 a2.63 2.63 0 1 0 5.26 0 a2.63 2.63 0 1 0 -5.26 0zM259.87 409.5 a2.63 2.63 0 1 0 5.26 0 a2.63 2.63 0 1 0 -5.26 0z" fill="black"></path><path d="M7.87 178.5 a2.63 2.63 0 1 0 5.26 0 a2.63 2.63 0 1 0 -5.26 0z" fill="black"></path><path d="M1036.87 409.5 a2.63 2.63 0 1 0 5.26 0 a2.63 2.63 0 1 0 -5.26 0zM448.87 472.5 a2.63 2.63 0 1 0 5.26 0 a2.63 2.63 0 1 0 -5.26 0zM658.87 472.5 a2.63 2.63 0 1 0 5.26 0 a2.63 2.63 0 1 0 -5.26 0zM259.87 451.5 a2.63 2.63 0 1 0 5.26 0 a2.63 2.63 0 1 0 -5.26 0zM553.87 493.5 a2.63 2.63 0 1 0 5.26 0 a2.63 2.63 0 1 0 -5.26 0zM784.87 451.5 a2.63 2.63 0 1 0 5.26 0 a2.63 2.63 0 1 0 -5.26 0zM364.87 430.5 a2.63 2.63 0 1 0 5.26 0 a2.63 2.63 0 1 0 -5.26 0zM259.87 472.5 a2.63 2.63 0 1 0 5.26 0 a2.63 2.63 0 1 0 -5.26 0zM721.87 409.5 a2.63 2.63 0 1 0 5.26 0 a2.63 2.63 0 1 0 -5.26 0zM1267.87 430.5 a2.63 2.63 0 1 0 5.26 0 a2.63 2.63 0 1 0 -5.26 0zM1099.87 472.5 a2.63 2.63 0 1 0 5.26 0 a2.63 2.63 0 1 0 -5.26 0zM931.87 472.5 a2.63 2.63 0 1 0 5.26 0 a2.63 2.63 0 1 0 -5.26 0zM1015.87 472.5 a2.63 2.63 0 1 0 5.26 0 a2.63 2.63 0 1 0 -5.26 0z" fill="black"></path><path d="M1099.87 94.5 a2.63 2.63 0 1 0 5.26 0 a2.63 2.63 0 1 0 -5.26 0zM1225.87 52.5 a2.63 2.63 0 1 0 5.26 0 a2.63 2.63 0 1 0 -5.26 0zM784.87 73.5 a2.63 2.63 0 1 0 5.26 0 a2.63 2.63 0 1 0 -5.26 0zM448.87 94.5 a2.63 2.63 0 1 0 5.26 0 a2.63 2.63 0 1 0 -5.26 0zM532.87 94.5 a2.63 2.63 0 1 0 5.26 0 a2.63 2.63 0 1 0 -5.26 0zM175.87 157.5 a2.63 2.63 0 1 0 5.26 0 a2.63 2.63 0 1 0 -5.26 0zM973.87 115.5 a2.63 2.63 0 1 0 5.26 0 a2.63 2.63 0 1 0 -5.26 0zM259.87 157.5 a2.63 2.63 0 1 0 5.26 0 a2.63 2.63 0 1 0 -5.26 0zM343.87 157.5 a2.63 2.63 0 1 0 5.26 0 a2.63 2.63 0 1 0 -5.26 0zM175.87 136.5 a2.63 2.63 0 1 0 5.26 0 a2.63 2.63 0 1 0 -5.26 0zM1162.87 115.5 a2.63 2.63 0 1 0 5.26 0 a2.63 2.63 0 1 0 -5.26 0zM427.87 94.5 a2.63 2.63 0 1 0 5.26 0 a2.63 2.63 0 1 0 -5.26 0zM952.87 115.5 a2.63 2.63 0 1 0 5.26 0 a2.63 2.63 0 1 0 -5.26 0zM931.87 115.5 a2.63 2.63 0 1 0 5.26 0 a2.63 2.63 0 1 0 -5.26 0z" fill="black"></path><path d="M700.87 52.5 a2.63 2.63 0 1 0 5.26 0 a2.63 2.63 0 1 0 -5.26 0zM196.87 73.5 a2.63 2.63 0 1 0 5.26 0 a2.63 2.63 0 1 0 -5.26 0zM385.87 52.5 a2.63 2.63 0 1 0 5.26 0 a2.63 2.63 0 1 0 -5.26 0zM595.87 52.5 a2.63 2.63 0 1 0 5.26 0 a2.63 2.63 0 1 0 -5.26 0zM238.87 115.5 a2.63 2.63 0 1 0 5.26 0 a2.63 2.63 0 1 0 -5.26 0zM343.87 52.5 a2.63 2.63 0 1 0 5.26 0 a2.63 2.63 0 1 0 -5.26 0zM259.87 52.5 a2.63 2.63 0 1 0 5.26 0 a2.63 2.63 0 1 0 -5.26 0zM511.87 52.5 a2.63 2.63 0 1 0 5.26 0 a2.63 2.63 0 1 0 -5.26 0zM301.87 73.5 a2.63 2.63 0 1 0 5.26 0 a2.63 2.63 0 1 0 -5.26 0z" fill="black"></path></mask></defs></svg>