<svg xmlns="http://www.w3.org/2000/svg" version="1.1" xmlns:xlink="http://www.w3.org/1999/xlink" xmlns:svgjs="http://svgjs.dev/svgjs" width="1440" height="560" preserveAspectRatio="none" viewBox="0 0 1440 560"><g mask="url(&quot;#SvgjsMask1012&quot;)" fill="none"><rect width="1440" height="560" x="0" y="0" fill="#0e2a47"></rect><path d="M312 161L311 449" stroke-width="10" stroke="url(&quot;#SvgjsLinearGradient1013&quot;)" stroke-linecap="round" class="Up"></path><path d="M550 544L549 251" stroke-width="10" stroke="url(&quot;#SvgjsLinearGradient1014&quot;)" stroke-linecap="round" class="Down"></path><path d="M498 490L497 766" stroke-width="8" stroke="url(&quot;#SvgjsLinearGradient1013&quot;)" stroke-linecap="round" class="Up"></path><path d="M1016 325L1015 48" stroke-width="8" stroke="url(&quot;#SvgjsLinearGradient1013&quot;)" stroke-linecap="round" class="Up"></path><path d="M972 9L971 -247" stroke-width="8" stroke="url(&quot;#SvgjsLinearGradient1013&quot;)" stroke-linecap="round" class="Up"></path><path d="M113 207L112 622" stroke-width="6" stroke="url(&quot;#SvgjsLinearGradient1013&quot;)" stroke-linecap="round" class="Up"></path><path d="M1149 259L1148 538" stroke-width="8" stroke="url(&quot;#SvgjsLinearGradient1014&quot;)" stroke-linecap="round" class="Down"></path><path d="M905 203L904 -108" stroke-width="6" stroke="url(&quot;#SvgjsLinearGradient1014&quot;)" stroke-linecap="round" class="Down"></path><path d="M1101 15L1100 277" stroke-width="6" stroke="url(&quot;#SvgjsLinearGradient1013&quot;)" stroke-linecap="round" class="Up"></path><path d="M538 391L537 550" stroke-width="6" stroke="url(&quot;#SvgjsLinearGradient1013&quot;)" stroke-linecap="round" class="Up"></path><path d="M234 81L233 316" stroke-width="10" stroke="url(&quot;#SvgjsLinearGradient1013&quot;)" stroke-linecap="round" class="Up"></path><path d="M1132 292L1131 -92" stroke-width="8" stroke="url(&quot;#SvgjsLinearGradient1013&quot;)" stroke-linecap="round" class="Up"></path><path d="M1350 381L1349 665" stroke-width="8" stroke="url(&quot;#SvgjsLinearGradient1013&quot;)" stroke-linecap="round" class="Up"></path><path d="M403 163L402 580" stroke-width="8" stroke="url(&quot;#SvgjsLinearGradient1014&quot;)" stroke-linecap="round" class="Down"></path><path d="M1427 80L1426 382" stroke-width="6" stroke="url(&quot;#SvgjsLinearGradient1014&quot;)" stroke-linecap="round" class="Down"></path><path d="M633 92L632 296" stroke-width="6" stroke="url(&quot;#SvgjsLinearGradient1013&quot;)" stroke-linecap="round" class="Up"></path><path d="M469 472L468 267" stroke-width="6" stroke="url(&quot;#SvgjsLinearGradient1013&quot;)" stroke-linecap="round" class="Up"></path><path d="M735 321L734 -77" stroke-width="6" stroke="url(&quot;#SvgjsLinearGradient1014&quot;)" stroke-linecap="round" class="Down"></path><path d="M271 344L270 760" stroke-width="6" stroke="url(&quot;#SvgjsLinearGradient1014&quot;)" stroke-linecap="round" class="Down"></path><path d="M102 331L101 -71" stroke-width="8" stroke="url(&quot;#SvgjsLinearGradient1013&quot;)" stroke-linecap="round" class="Up"></path><path d="M429 76L428 -66" stroke-width="8" stroke="url(&quot;#SvgjsLinearGradient1014&quot;)" stroke-linecap="round" class="Down"></path><path d="M1396 477L1395 143" stroke-width="6" stroke="url(&quot;#SvgjsLinearGradient1014&quot;)" stroke-linecap="round" class="Down"></path><path d="M1373 294L1372 480" stroke-width="6" stroke="url(&quot;#SvgjsLinearGradient1014&quot;)" stroke-linecap="round" class="Down"></path><path d="M764 344L763 78" stroke-width="6" stroke="url(&quot;#SvgjsLinearGradient1014&quot;)" stroke-linecap="round" class="Down"></path><path d="M863 95L862 -317" stroke-width="8" stroke="url(&quot;#SvgjsLinearGradient1013&quot;)" stroke-linecap="round" class="Up"></path><path d="M948 429L947 575" stroke-width="10" stroke="url(&quot;#SvgjsLinearGradient1014&quot;)" stroke-linecap="round" class="Down"></path><path d="M709 338L708 150" stroke-width="6" stroke="url(&quot;#SvgjsLinearGradient1014&quot;)" stroke-linecap="round" class="Down"></path><path d="M1068 242L1067 -113" stroke-width="6" stroke="url(&quot;#SvgjsLinearGradient1013&quot;)" stroke-linecap="round" class="Up"></path><path d="M970 251L969 522" stroke-width="6" stroke="url(&quot;#SvgjsLinearGradient1014&quot;)" stroke-linecap="round" class="Down"></path><path d="M70 427L69 763" stroke-width="8" stroke="url(&quot;#SvgjsLinearGradient1014&quot;)" stroke-linecap="round" class="Down"></path><path d="M559 362L558 -36" stroke-width="10" stroke="url(&quot;#SvgjsLinearGradient1014&quot;)" stroke-linecap="round" class="Down"></path><path d="M72 152L71 345" stroke-width="6" stroke="url(&quot;#SvgjsLinearGradient1014&quot;)" stroke-linecap="round" class="Down"></path><path d="M925 36L924 369" stroke-width="6" stroke="url(&quot;#SvgjsLinearGradient1013&quot;)" stroke-linecap="round" class="Up"></path><path d="M428 430L427 24" stroke-width="8" stroke="url(&quot;#SvgjsLinearGradient1013&quot;)" stroke-linecap="round" class="Up"></path><path d="M678 435L677 100" stroke-width="10" stroke="url(&quot;#SvgjsLinearGradient1013&quot;)" stroke-linecap="round" class="Up"></path><path d="M1390 108L1389 373" stroke-width="6" stroke="url(&quot;#SvgjsLinearGradient1013&quot;)" stroke-linecap="round" class="Up"></path></g><defs><mask id="SvgjsMask1012"><rect width="1440" height="560" fill="#ffffff"></rect></mask><linearGradient x1="0%" y1="100%" x2="0%" y2="0%" id="SvgjsLinearGradient1013"><stop stop-color="rgba(28, 83, 142, 0)" offset="0"></stop><stop stop-color="#1c538e" offset="1"></stop></linearGradient><linearGradient x1="0%" y1="0%" x2="0%" y2="100%" id="SvgjsLinearGradient1014"><stop stop-color="rgba(28, 83, 142, 0)" offset="0"></stop><stop stop-color="#1c538e" offset="1"></stop></linearGradient></defs></svg>